<svg xmlns="http://www.w3.org/2000/svg" width="1200" height="630" viewBox="0 0 1200 630" fill="none">
  <defs>
    <linearGradient id="bg" x1="0" y1="0" x2="1" y2="1">
      <stop offset="0%" stop-color="#0f172a" />
      <stop offset="55%" stop-color="#1e3a8a" />
      <stop offset="100%" stop-color="#0f172a" />
    </linearGradient>
    <linearGradient id="accent" x1="0" y1="0" x2="1" y2="0">
      <stop offset="0%" stop-color="#38bdf8" />
      <stop offset="100%" stop-color="#22d3ee" />
    </linearGradient>
  </defs>
  <rect width="1200" height="630" fill="url(#bg)" />
  <circle cx="120" cy="120" r="90" fill="#38bdf8" opacity="0.16" />
  <circle cx="1090" cy="520" r="130" fill="#22c55e" opacity="0.16" />
  <rect x="80" y="90" width="1040" height="450" rx="40" fill="#0b1220" opacity="0.4" stroke="#1e293b" stroke-width="2" />
  <rect x="120" y="360" width="220" height="10" rx="5" fill="url(#accent)" />
  <rect x="120" y="390" width="320" height="10" rx="5" fill="#1e3a8a" opacity="0.9" />
  <rect x="120" y="420" width="280" height="10" rx="5" fill="#1e3a8a" opacity="0.9" />
  <rect x="120" y="450" width="240" height="10" rx="5" fill="#1e3a8a" opacity="0.9" />
  <rect x="660" y="210" width="360" height="220" rx="24" fill="#0f172a" stroke="#334155" stroke-width="2" />
  <rect x="690" y="240" width="140" height="12" rx="6" fill="#38bdf8" />
  <rect x="690" y="270" width="220" height="10" rx="5" fill="#475569" />
  <rect x="690" y="295" width="200" height="10" rx="5" fill="#475569" />
  <rect x="690" y="320" width="160" height="10" rx="5" fill="#475569" />
  <rect x="690" y="350" width="260" height="46" rx="12" fill="#1e3a8a" />
  <text x="120" y="250" fill="#f8fafc" font-size="64" font-weight="700" font-family="ui-sans-serif, system-ui, -apple-system, Segoe UI, sans-serif">
    BLOGI
  </text>
  <text x="120" y="308" fill="#94a3b8" font-size="28" font-weight="500" font-family="ui-sans-serif, system-ui, -apple-system, Segoe UI, sans-serif">
    Danang Tour 콘텐츠 플랫폼
  </text>
</svg>
